<?xml version="1.0" encoding="UTF-8"?>
<svg width="20px" height="20px" viewBox="0 0 20 20" version="1.1" xmlns="http://www.w3.org/2000/svg" xmlns:xlink="http://www.w3.org/1999/xlink">
    <!-- Generator: Sketch 61.2 (89653) - https://sketch.com -->
    <title>形状</title>
    <desc>Created with Sketch.</desc>
    <g id="控件" stroke="none" stroke-width="1" fill="none" fill-rule="evenodd">
        <g id="侧边栏" transform="translate(-35.000000, -142.000000)" fill="#A4B9A7" fill-rule="nonzero">
            <g id="编组-5">
                <path d="M51.1111111,152 C50.2222222,152 49.4444444,151.222222 49.4444444,150.333333 C49.4444444,149.444444 50.2222222,148.666667 51.1111111,148.666667 C52,148.666667 52.7777778,149.444444 52.7777778,150.333333 C52.7777778,151.222222 52,152 51.1111111,152 Z M47.7777778,147.555556 C46.8888889,147.555556 46.1111111,146.777778 46.1111111,145.888889 C46.1111111,145 46.8888889,144.222222 47.7777778,144.222222 C48.6666667,144.222222 49.4444444,145 49.4444444,145.888889 C49.4444444,146.777778 48.6666667,147.555556 47.7777778,147.555556 Z M42.2222222,147.555556 C41.3333333,147.555556 40.5555556,146.777778 40.5555556,145.888889 C40.5555556,145 41.3333333,144.222222 42.2222222,144.222222 C43.1111111,144.222222 43.8888889,145 43.8888889,145.888889 C43.8888889,146.777778 43.1111111,147.555556 42.2222222,147.555556 Z M38.8888889,152 C38,152 37.2222222,151.222222 37.2222222,150.333333 C37.2222222,149.444444 38,148.666667 38.8888889,148.666667 C39.7777778,148.666667 40.5555556,149.444444 40.5555556,150.333333 C40.5555556,151.222222 39.7777778,152 38.8888889,152 Z M45,142 C39.4444444,142 35,146.444444 35,152 C35,157.555556 39.4444444,162 45,162 C45.8888889,162 46.6666667,161.222222 46.6666667,160.333333 C46.6666667,159.888889 46.5555556,159.555556 46.2222222,159.222222 C46,158.888889 45.7777778,158.555556 45.7777778,158.111111 C45.7777778,157.222222 46.5555556,156.444444 47.4444444,156.444444 L49.4444444,156.444444 C52.5555556,156.444444 55,154 55,150.888889 C55,146 50.5555556,142 45,142 L45,142 Z" id="形状"></path>
            </g>
        </g>
    </g>
</svg>