<?xml version="1.0" encoding="UTF-8"?>
<svg width="134px" height="50px" viewBox="0 0 134 50" version="1.1" xmlns="http://www.w3.org/2000/svg" xmlns:xlink="http://www.w3.org/1999/xlink">
    <!-- Generator: Sketch 61.2 (89653) - https://sketch.com -->
    <title>logo</title>
    <desc>Created with Sketch.</desc>
    <g id="控件" stroke="none" stroke-width="1" fill="none" fill-rule="evenodd">
        <g id="head" transform="translate(-36.000000, -20.000000)" fill="#000000">
            <g id="logo">
                <path d="M61,20 C74.7850575,20 86,31.2149425 86,45 C86,46.5643678 85.8482759,48.0931034 85.5724138,49.5787356 C85.5747126,49.5798851 85.5770115,49.5804598 85.5793103,49.5816092 C84.8385057,54.6097701 82.7632184,59.0034483 85.6235632,62.1614943 L85.6235632,62.1614943 L88.5563218,65.0948276 C89.6781609,66.2166667 89.6781609,68.0362069 88.5563218,69.158046 C87.9954023,69.7195402 87.2597701,70 86.5241379,70 C85.7890805,70 85.054023,69.7195402 84.4925287,69.158046 L84.4925287,69.158046 L81.7821839,66.4477011 C78.5534483,63.2189655 73.4821839,67.4086207 68.9298851,68.7074713 C68.9287356,68.7068966 68.9281609,68.7057471 68.9270115,68.7045977 C66.4344828,69.5402299 63.7706897,70 61,70 C47.2149425,70 36,58.7850575 36,45 C36,31.2149425 47.2149425,20 61,20 Z M61,25.7471264 C50.3833333,25.7471264 41.7471264,34.383908 41.7471264,45 C41.7471264,55.616092 50.3833333,64.2528736 61,64.2528736 C71.6166667,64.2528736 80.2528736,55.616092 80.2528736,45 C80.2528736,34.383908 71.6166667,25.7471264 61,25.7471264 Z M109.612069,53.3258046 L111.549425,59.1223563 C111.728161,59.6625862 111.858621,60.0660345 111.940805,60.3344253 C112.033333,60.0367241 112.178736,59.5993678 112.375862,59.0223563 L114.336782,53.3258046 L115.793678,53.3258046 L115.793678,61.5125862 L114.749425,61.5125862 L114.749425,54.6608621 L112.37069,61.5125862 L111.393678,61.5125862 L109.025287,54.5436207 L109.025287,61.5125862 L107.981609,61.5125862 L107.981609,53.3258046 L109.612069,53.3258046 Z M120.954425,53.3260345 L124.304425,61.5128161 L123.070517,61.5128161 L122.115345,59.0335057 L118.691782,59.0335057 L117.793506,61.5128161 L116.642931,61.5128161 L119.786609,53.3260345 L120.954425,53.3260345 Z M126.270517,53.3258046 L130.569943,59.7533908 L130.569943,53.3258046 L131.609023,53.3258046 L131.609023,61.5125862 L130.497529,61.5125862 L126.198103,55.0798276 L126.198103,61.5125862 L125.159023,61.5125862 L125.159023,53.3258046 L126.270517,53.3258046 Z M133.898851,53.3258046 L135.512069,55.7941954 C135.810345,56.2562644 136.087356,56.7177586 136.344828,57.1792529 C136.589655,56.751092 136.888506,56.268908 137.237931,55.7327011 L138.824138,53.3258046 L140.086207,53.3258046 L136.81954,58.0447701 L136.81954,61.5125862 L135.736207,61.5125862 L135.736207,58.0447701 L132.58046,53.3258046 L133.898851,53.3258046 Z M142.325862,53.3258621 L142.325862,61.5126437 L141.241954,61.5126437 L141.241954,53.3258621 L142.325862,53.3258621 Z M150.439655,53.3260345 C151.065517,53.3260345 151.566667,53.4087931 151.944253,53.5743103 C152.322414,53.7404023 152.618391,53.995 152.832184,54.3392529 C153.045977,54.6840805 153.154023,55.0444253 153.154023,55.4202874 C153.154023,55.7702874 153.058621,56.0995977 152.868966,56.4087931 C152.678736,56.7174138 152.391954,56.9668391 152.008046,57.157069 C152.504023,57.3018966 152.884483,57.5495977 153.151149,57.8995977 C153.417241,58.2495977 153.55,58.6628161 153.55,59.1392529 C153.55,59.5225862 153.468966,59.878908 153.306897,60.2087931 C153.145402,60.5381034 152.944828,60.7921264 152.706897,60.9708621 C152.468391,61.1495977 152.16954,61.2846552 151.810345,61.3760345 C151.451149,61.4674138 151.01092,61.5128161 150.489655,61.5128161 L147.367816,61.5128161 L147.367816,53.3260345 L150.439655,53.3260345 Z M158.453908,53.3260345 L161.803908,61.5128161 L160.569425,61.5128161 L159.614828,59.0335057 L156.191264,59.0335057 L155.292414,61.5128161 L154.142414,61.5128161 L157.286092,53.3260345 L158.453908,53.3260345 Z M166.31569,53.3258046 C167.045575,53.3258046 167.600172,53.3993678 167.980057,53.5464943 C168.359943,53.6936207 168.663391,53.9533908 168.890402,54.3258046 C169.117989,54.6982184 169.231207,55.1091379 169.231207,55.5597126 C169.231207,56.1401724 169.043276,56.6298276 168.666839,57.0281034 C168.290402,57.426954 167.709943,57.6798276 166.92431,57.7878736 C167.211092,57.9258046 167.428908,58.0614368 167.577759,58.1953448 C167.894425,58.4861494 168.193851,58.8487931 168.476609,59.2844253 L169.901322,61.5125862 L168.538678,61.5125862 L167.455345,59.8097126 C167.138103,59.3177586 166.878333,58.9418966 166.673736,58.6815517 C166.468563,58.4212069 166.28523,58.2384483 166.123736,58.1344253 C165.961092,58.0298276 165.796149,57.9574138 165.628908,57.9160345 C165.50592,57.8901724 165.305345,57.876954 165.026034,57.876954 L163.769713,57.876954 L163.769713,61.5125862 L162.685805,61.5125862 L162.685805,53.3258046 L166.31569,53.3258046 Z M150.344828,57.7323563 L148.451724,57.7323563 L148.451724,60.5467241 L150.489655,60.5467241 C150.839655,60.5467241 151.085632,60.5335057 151.227011,60.5076437 C151.476437,60.4628161 151.684483,60.3886782 151.852299,60.2840805 C152.01954,60.1800575 152.157471,60.0283333 152.265517,59.828908 C152.372989,59.6300575 152.427586,59.3995977 152.427586,59.1392529 C152.427586,58.8340805 152.349425,58.5691379 152.193103,58.3438506 C152.036782,58.1179885 151.81954,57.9605172 151.542529,57.8685632 C151.265517,57.7777586 150.866092,57.7323563 150.344828,57.7323563 Z M120.34523,54.1858046 C120.240632,54.711092 120.09408,55.2317816 119.903851,55.7495977 L119.005,58.1507471 L121.780287,58.1507471 L120.926264,55.8835057 C120.66592,55.1944253 120.472241,54.628908 120.34523,54.1858046 Z M157.844713,54.1858046 C157.740115,54.711092 157.593563,55.2317816 157.402759,55.7495977 L156.503908,58.1507471 L159.27977,58.1507471 L158.425172,55.8835057 C158.164828,55.1944253 157.971149,54.628908 157.844713,54.1858046 Z M166.360517,54.230977 L163.769713,54.230977 L163.769713,56.939023 L166.098448,56.939023 C166.593276,56.939023 166.980632,56.8878736 167.259368,56.7855747 C167.539253,56.6832759 167.751322,56.5194828 167.896149,56.2941954 C168.041552,56.068908 168.11454,55.8240805 168.11454,55.5597126 C168.11454,55.1723563 167.973161,54.8545402 167.692126,54.6045402 C167.411667,54.3551149 166.967414,54.230977 166.360517,54.230977 Z M150.087931,54.2921264 L148.451724,54.2921264 L148.451724,56.7656897 L150.221839,56.7656897 C150.701724,56.7656897 151.045977,56.7340805 151.255172,56.6708621 C151.529885,56.5892529 151.737931,56.453046 151.877586,56.2633908 C152.017241,56.0731609 152.086782,55.8352299 152.086782,55.5484483 C152.086782,55.2771839 152.021839,55.0375287 151.891379,54.8306322 C151.76092,54.6243103 151.574713,54.482931 151.333333,54.4064943 C151.090805,54.3306322 150.675862,54.2921264 150.087931,54.2921264 Z M69.6626437,42.1214368 C71.2488506,42.1214368 72.5350575,43.407069 72.5362088,44.9932759 C72.537931,48.0771839 71.337931,50.9760345 69.1574713,53.1564943 C66.9787356,55.3358046 64.0816092,56.5358046 61,56.5358046 C57.9189655,56.5358046 55.0218391,55.3358046 52.8431034,53.1564943 C50.6643678,50.9783333 49.4643678,48.0817816 49.4643678,45.0001724 C49.4643678,43.4128161 50.7505747,42.1266092 52.337931,42.1266092 C53.9241379,42.1266092 55.2114943,43.4128161 55.2114943,45.0001724 C55.2114943,46.5461494 55.8132184,47.9995977 56.9063218,49.0927011 C58,50.1863793 59.454023,50.7886782 61,50.7886782 C62.545977,50.7886782 64.0005747,50.1863793 65.0936782,49.0932759 C66.1873563,47.999023 66.7896552,46.5438506 66.7890805,44.9967241 C66.787931,43.4093678 68.0741379,42.1220115 69.6609195,42.1214368 L69.6626437,42.1214368 Z M123.436609,34.4199425 C123.837759,34.4647701 124.060747,34.6871839 124.106149,35.088908 C124.106149,35.5354598 123.905,35.7584483 123.503276,35.7584483 L120.223966,35.7584483 L120.223966,37.2975287 L122.36592,37.2975287 C123.034885,37.3423563 123.391782,37.7659195 123.436609,38.5687931 L123.436609,45.1279885 C123.302701,46.0647701 122.119943,46.3095977 119.889483,45.8641954 C119.442931,45.7297126 119.242356,45.4394828 119.287184,44.9940805 C119.421092,44.5923563 119.733161,44.4584483 120.223966,44.5923563 C121.562471,44.8601724 122.208448,44.7699425 122.16477,44.3251149 L122.16477,39.0377586 C122.16477,38.7256897 122.053276,38.5687931 121.830287,38.5687931 L120.157299,38.5687931 C120.157299,38.7481034 120.112471,39.0607471 120.022816,39.5061494 L120.022816,39.8406322 C120.826264,40.8222414 121.361897,41.7147701 121.629138,42.5176437 C121.763621,42.9641954 121.673391,43.2986782 121.361897,43.5216667 C120.960172,43.6555747 120.692931,43.4998276 120.558448,43.0532759 C120.290632,42.3837356 119.999828,41.871092 119.688333,41.5136207 C119.242356,42.7187931 118.594655,43.7452299 117.747529,44.5923563 C117.43546,44.8153448 117.145805,44.8153448 116.877989,44.5923563 C116.653851,44.3687931 116.676839,44.1239655 116.944655,43.8561494 C118.149253,42.3400575 118.795805,40.5768391 118.88546,38.5687931 L116.543506,38.5687931 C116.453276,38.9705172 116.386034,39.3055747 116.342356,39.5728161 C116.430862,39.7521264 116.543506,39.9308621 116.676839,40.1084483 C117.078563,40.555 117.413046,40.9785632 117.680862,41.3802874 C117.859023,41.7377586 117.81477,42.0492529 117.546954,42.3164943 C117.279713,42.5406322 117.033736,42.4739655 116.810747,42.1159195 C116.498678,41.7147701 116.208448,41.3578736 115.940632,41.0452299 C114.959023,43.4107471 114.133736,44.3687931 113.464195,43.9228161 L113.464195,45.3952299 C113.419368,45.7521264 113.196954,45.9532759 112.79523,45.9981034 C112.393506,45.9532759 112.192931,45.7521264 112.192931,45.3952299 L112.192931,38.4348851 C112.192931,37.7222414 112.571667,37.3423563 113.330862,37.2975287 L115.405575,37.2975287 L115.405575,37.0963793 L115.539483,35.7584483 L115.539483,35.7584483 L112.527414,35.7584483 C112.036034,35.7584483 111.746379,35.5572989 111.657874,35.1555747 C111.701552,34.7101724 111.969368,34.4647701 112.460747,34.4199425 L123.436609,34.4199425 Z M135.956609,41.313046 C136.358908,41.3578736 136.581322,41.5808621 136.626149,41.9820115 L136.626149,44.1906322 C136.626149,44.5027011 136.848563,44.6814368 137.295115,44.7262644 L141.311207,44.7262644 C141.890517,44.7699425 142.247989,44.4802874 142.381897,43.8561494 C142.515805,43.4107471 142.783046,43.2320115 143.18477,43.3205172 C143.586494,43.4544253 143.76408,43.7452299 143.720402,44.1906322 C143.452586,45.438908 142.716379,46.0193678 141.511207,45.9308621 L136.960632,45.9308621 C135.800287,45.9745402 135.264655,45.4176437 135.35431,44.2578736 L135.35431,41.9820115 C135.35431,41.5808621 135.55546,41.3578736 135.956609,41.313046 Z M133.815805,41.9153448 C134.172126,42.138908 134.260632,42.450977 134.083621,42.8521264 C133.502586,43.7894828 132.900287,44.6141954 132.276149,45.3285632 C131.918678,45.6848851 131.583621,45.7521264 131.272126,45.5291379 C130.959483,45.1716667 130.959483,44.8371839 131.272126,44.5251149 C131.717529,44.0802874 132.276149,43.3205172 132.94569,42.2498276 C133.123276,41.8481034 133.41408,41.7377586 133.815805,41.9153448 Z M144.657184,42.0492529 C145.41523,42.7636207 146.196839,43.5883333 146.999713,44.5251149 C147.222701,44.8371839 147.177874,45.1498276 146.865805,45.4624713 C146.508333,45.7297126 146.196839,45.7072989 145.929023,45.3952299 L145.727874,45.1946552 C144.880172,44.2578736 144.210632,43.5216667 143.720402,42.9860345 C143.407759,42.6745402 143.385345,42.3618966 143.653736,42.0492529 C144.010057,41.7814368 144.34454,41.7814368 144.657184,42.0492529 Z M162.063793,30.8056897 L167.685632,30.8056897 C168.711494,30.8056897 169.224713,31.3413218 169.224713,32.4120115 L169.224713,37.6321264 C169.268966,38.6585632 168.778161,39.1493678 167.752299,39.1045402 L162.063793,39.1045402 L162.063793,43.3872989 C162.018391,43.9683333 162.352874,44.2579885 163.067816,44.2579885 L167.283908,44.2579885 C168.30977,44.5252299 168.778161,43.8562644 168.68908,42.2499425 C168.68908,41.8482184 168.89023,41.6258046 169.291379,41.580977 C169.648276,41.6258046 169.848851,41.8482184 169.894253,42.2499425 C169.937931,43.6781034 169.781609,44.5924713 169.425287,44.9941954 C169.157471,45.3953448 168.376437,45.5735057 167.082759,45.5292529 L162.8,45.5292529 C161.461494,45.4838506 160.768966,44.8367241 160.724713,43.5884483 L160.724713,32.3453448 C160.635057,31.2304023 161.081609,30.7171839 162.063793,30.8056897 Z M110.854425,38.6360345 C111.256149,38.7699425 111.433736,39.0607471 111.390057,39.5061494 C110.988333,41.6475287 110.319368,43.4774138 109.382011,44.9940805 C109.114195,45.3952299 108.756724,45.4843103 108.311322,45.2613218 C107.953276,45.0377586 107.909598,44.7262644 108.177414,44.3251149 C109.069368,42.7636207 109.717069,41.0682184 110.118218,39.2383333 C110.207299,38.792931 110.453276,38.5917816 110.854425,38.6360345 Z M139.704885,41.7141954 C140.106609,42.1613218 140.48477,42.6515517 140.842241,43.1866092 C141.06523,43.6331609 141.020402,43.9682184 140.708908,44.1906322 C140.351437,44.2797126 140.039368,44.1687931 139.772126,43.8561494 C139.503736,43.4998276 139.146264,43.0532759 138.700862,42.5176437 C138.433046,42.2061494 138.45546,41.8935057 138.768103,41.5808621 C139.079598,41.3578736 139.392241,41.4027011 139.704885,41.7141954 Z M155.571839,31.1401724 L158.583333,31.1401724 C159.341379,31.1401724 159.721264,31.5200575 159.721264,32.2781034 L159.721264,42.451092 C159.810345,43.5212069 159.296552,43.9901724 158.182184,43.8562644 L155.705747,43.8562644 C154.768966,43.9459195 154.344253,43.5212069 154.433908,42.5844253 L154.433908,32.4120115 C154.38908,31.5200575 154.768966,31.0964943 155.571839,31.1401724 Z M115.271667,38.5687931 L114.066494,38.5687931 C113.753851,38.659023 113.553851,38.8820115 113.464195,39.2383333 L113.464195,42.7854598 C114.44523,41.446954 115.047529,40.0412069 115.271667,38.5687931 Z M157.914368,32.4120115 L156.174138,32.4120115 C155.861494,32.4120115 155.727586,32.568908 155.772414,32.8804023 L155.772414,41.9821264 C155.727586,42.3838506 155.861494,42.5625862 156.174138,42.5177586 L157.981034,42.5177586 C158.248851,42.5625862 158.382184,42.4068391 158.382184,42.0493678 L158.382184,32.8804023 C158.382184,32.568908 158.225862,32.4120115 157.914368,32.4120115 Z M145.259483,37.1636207 L145.259483,39.7739655 C145.303736,40.6222414 144.858333,41.0233908 143.920977,40.9785632 L133.949138,40.9785632 C133.056034,41.0682184 132.65431,40.6435057 132.74454,39.7067241 L132.74454,37.2302874 C132.65431,36.3837356 133.079023,35.9820115 134.015805,36.0256897 L143.988218,36.0256897 C144.880172,35.9820115 145.303736,36.3607471 145.259483,37.1636207 Z M143.988218,38.9705172 L134.083621,38.9705172 L134.083621,39.5061494 C134.037644,39.7739655 134.150287,39.9072989 134.418103,39.9072989 L143.586494,39.9072989 C143.85431,39.9072989 143.988218,39.7739655 143.988218,39.5061494 L143.988218,38.9705172 Z M143.586494,37.0963793 L134.418103,37.0963793 C134.150287,37.1417816 134.015805,37.2538506 134.015805,37.4314368 L134.015805,38.0337356 L143.920977,38.0337356 L143.920977,37.4986782 C143.920977,37.2302874 143.808908,37.0963793 143.586494,37.0963793 Z M164.33908,32.0102874 L162.464943,32.0102874 C162.197701,32.0102874 162.063793,32.1441954 162.063793,32.4120115 L162.063793,37.8999425 L164.33908,37.8999425 L164.33908,32.0102874 Z M167.417241,32.0102874 L165.677586,32.0102874 L165.677586,37.8999425 L167.417241,37.8999425 C167.685632,37.8999425 167.840805,37.7441954 167.886207,37.4315517 L167.886207,32.4786782 C167.840805,32.2114368 167.685632,32.0556897 167.417241,32.0102874 Z M109.114195,34.5538506 C109.693506,34.9998276 110.27454,35.5572989 110.854425,36.2268391 C111.122241,36.6279885 111.14408,36.963046 110.921667,37.2302874 C110.653851,37.4986782 110.386034,37.4538506 110.118218,37.0963793 C109.492931,36.4274138 108.890632,35.8481034 108.311322,35.3567241 C107.953276,35.088908 107.886609,34.7992529 108.110747,34.4866092 C108.378563,34.2641954 108.713046,34.2854598 109.114195,34.5538506 Z M118.952701,35.7584483 L116.810747,35.7584483 C116.76592,35.8923563 116.720517,36.2044253 116.676839,36.6952299 C116.632011,37.0078736 116.610172,37.209023 116.610172,37.2975287 L118.952701,37.2975287 L118.952701,35.7584483 Z M139.102586,30.2032759 C139.146264,30.3371839 139.23592,30.5377586 139.370402,30.8061494 C139.547414,31.1182184 139.704885,31.3641954 139.838218,31.5417816 L145.460057,31.5417816 C145.817529,31.5866092 146.017529,31.7877586 146.062356,32.1440805 C146.017529,32.5015517 145.839368,32.6797126 145.527299,32.6797126 L142.649713,32.6797126 C142.470402,33.0371839 142.337069,33.3716667 142.247989,33.6831609 C142.180316,33.9176437 142.138829,34.0519109 142.122315,34.0854777 L146.196839,34.0854598 C146.598563,34.1302874 146.799138,34.3308621 146.799138,34.6871839 C146.799138,35.0446552 146.598563,35.2228161 146.196839,35.2228161 L131.606609,35.2228161 C131.249138,35.2228161 131.047989,35.0446552 131.00431,34.6871839 C131.047989,34.3308621 131.249138,34.1302874 131.606609,34.0854598 L135.889943,34.0854598 C135.800287,33.9072989 135.599138,33.438908 135.287644,32.6797126 L132.543966,32.6797126 C132.142241,32.6797126 131.918678,32.5015517 131.874425,32.1440805 C131.918678,31.7877586 132.119253,31.5866092 132.476724,31.5417816 L138.366379,31.5417816 C138.321552,31.4981034 138.25431,31.4308621 138.16523,31.3412069 C138.031897,31.1182184 137.941667,30.9394828 137.897989,30.8061494 C137.629598,30.4038506 137.697414,30.0923563 138.098563,29.8687931 C138.500287,29.6912069 138.83477,29.8015517 139.102586,30.2032759 Z M120.157299,29.9354598 C120.558448,29.9354598 120.781437,30.1366092 120.826264,30.5377586 L120.826264,31.5417816 L123.168793,31.5417816 C123.525115,31.5866092 123.726264,31.8095977 123.771092,32.2113218 C123.726264,32.6124713 123.525115,32.8136207 123.168793,32.8136207 L120.826264,32.8136207 L120.826264,33.6164943 C120.781437,34.063046 120.558448,34.309023 120.157299,34.3527011 C119.755575,34.309023 119.555,34.063046 119.555,33.6164943 L119.555,32.8136207 L115.940632,32.8136207 L115.940632,33.4825862 C115.895805,33.9291379 115.672816,34.1751149 115.271667,34.2193678 C114.82569,34.1751149 114.602126,33.9291379 114.602126,33.4825862 L114.602126,32.8136207 L112.929138,32.8136207 C112.527414,32.8136207 112.303851,32.5912069 112.260172,32.1440805 C112.260172,31.7877586 112.482586,31.5866092 112.929138,31.5417816 L114.602126,31.5417816 L114.602126,30.605 C114.602126,30.2032759 114.802701,30.0027011 115.205,30.0027011 C115.606149,30.0475287 115.829138,30.2699425 115.873966,30.6722414 L115.873966,31.5417816 L119.555,31.5417816 L119.555,30.605 C119.555,30.2032759 119.755575,29.9808621 120.157299,29.9354598 Z M141.24454,32.6797126 L136.760057,32.6797126 C136.803736,32.8136207 136.982471,33.2820115 137.295115,34.0854598 L140.642241,34.0854598 C140.775575,33.8618966 140.953736,33.4607471 141.176724,32.8802874 L141.24454,32.6797126 Z M109.917644,30.8061494 C110.541782,31.3412069 111.122241,31.9216667 111.657874,32.5458046 C111.880862,32.9475287 111.880862,33.2820115 111.657874,33.5498276 C111.390057,33.7733908 111.122241,33.7285632 110.854425,33.4159195 C110.09523,32.6124713 109.537759,32.0774138 109.181437,31.8095977 C108.823966,31.5866092 108.734885,31.3193678 108.913621,31.0067241 C109.181437,30.6946552 109.51592,30.6279885 109.917644,30.8061494 Z"></path>
            </g>
        </g>
    </g>
</svg>