<?xml version="1.0" encoding="UTF-8"?>
<svg width="20px" height="5px" viewBox="0 0 20 5" version="1.1" xmlns="http://www.w3.org/2000/svg" xmlns:xlink="http://www.w3.org/1999/xlink">
    <!-- Generator: Sketch 61.2 (89653) - https://sketch.com -->
    <title>形状</title>
    <desc>Created with Sketch.</desc>
    <g id="控件" stroke="none" stroke-width="1" fill="none" fill-rule="evenodd">
        <g id="侧边栏" transform="translate(-35.000000, -247.000000)" fill="#FFFFFF" fill-rule="nonzero">
            <g id="编组-5">
                <path d="M35,249.272713 L35,249.272714 C35,250.527897 36.01753,251.545427 37.2727137,251.545427 C38.5278974,251.545427 39.5454274,250.527897 39.5454274,249.272714 L39.5454274,249.272714 C39.5454274,248.01753 38.5279,247 37.2727137,247 C36.01753,247 35,248.017527 35,249.272714 L35,249.272713 Z M50.4545726,249.272713 L50.4545726,249.272714 C50.4545726,250.527897 51.4721026,251.545427 52.7272863,251.545427 C53.98247,251.545427 55,250.527897 55,249.272714 L55,249.272714 C55,248.01753 53.9824726,247 52.7272863,247 C51.4721026,247 50.4545726,248.017527 50.4545726,249.272714 L50.4545726,249.272713 Z M42.7274163,249.272713 L42.7274163,249.272714 C42.7274163,250.527897 43.7449463,251.545427 45.00013,251.545427 C46.2553136,251.545427 47.2728436,250.527897 47.2728436,249.272714 L47.2728436,249.272714 C47.2728436,248.01753 46.2553162,247 45.00013,247 C43.7449463,247 42.7274163,248.017527 42.7274163,249.272714 L42.7274163,249.272713 Z" id="形状"></path>
            </g>
        </g>
    </g>
</svg>