<?xml version="1.0" encoding="UTF-8"?>
<svg width="24px" height="20px" viewBox="0 0 24 20" version="1.1" xmlns="http://www.w3.org/2000/svg" xmlns:xlink="http://www.w3.org/1999/xlink">
    <!-- Generator: Sketch 61.2 (89653) - https://sketch.com -->
    <title>路径</title>
    <desc>Created with Sketch.</desc>
    <g id="控件" stroke="none" stroke-width="1" fill="none" fill-rule="evenodd">
        <g id="head" transform="translate(-1161.000000, -33.000000)" fill="#00bf6f" fill-rule="nonzero">
            <g id="路径">
                <path d="M1184.26924,47.6153822 L1184.26924,51.653845 C1184.26924,52.0384607 1184.07693,52.2307686 1183.88462,52.6153843 C1183.69231,53 1183.3077,53 1182.92308,53 L1178.88462,53 C1178.5,53 1178.30769,52.8076924 1177.92308,52.6153843 C1177.53846,52.4230767 1177.53846,52.0384607 1177.53846,51.653845 L1177.53846,47.6153822 C1177.53846,47.2307665 1177.73077,47.0384587 1177.92308,46.653843 C1178.11539,46.2692273 1178.5,46.2692273 1178.88462,46.2692273 L1180.03846,46.2692273 L1180.03846,43.7692314 L1173.5,43.7692314 L1173.5,46.2692273 L1174.65385,46.2692273 C1175.03846,46.2692273 1175.23077,46.4615349 1175.61539,46.653843 C1176,46.8461506 1176,47.2307665 1176,47.6153822 L1176,51.653845 C1176,52.0384607 1175.8077,52.2307686 1175.61539,52.6153843 C1175.42308,53 1175.03846,53 1174.65385,53 L1170.61539,53 C1170.23077,53 1170.03846,52.8076924 1169.65385,52.6153843 C1169.26923,52.4230767 1169.26923,52.0384607 1169.26923,51.653845 L1169.26923,47.6153822 C1169.26923,47.2307665 1169.46154,47.0384587 1169.65385,46.653843 C1169.84615,46.2692273 1170.23077,46.2692273 1170.61539,46.2692273 L1171.76923,46.2692273 L1171.76923,43.7692314 L1165.23077,43.7692314 L1165.23077,46.2692273 L1166.38462,46.2692273 C1166.76923,46.2692273 1166.96154,46.4615349 1167.34616,46.653843 C1167.73077,46.8461506 1167.73077,47.2307665 1167.73077,47.6153822 L1167.73077,51.653845 C1167.73077,52.0384607 1167.53847,52.2307686 1167.34616,52.6153843 C1167.15385,53 1166.76923,53 1166.38462,53 L1162.34615,53 C1161.96154,53 1161.76923,52.8076924 1161.38462,52.6153843 C1161,52.4230767 1161,52.0384607 1161,51.653845 L1161,47.6153822 C1161,47.2307665 1161.19231,47.0384587 1161.38462,46.653843 C1161.57692,46.2692273 1161.96154,46.2692273 1162.34615,46.2692273 L1163.5,46.2692273 L1163.5,43.7692314 C1163.5,43.3846157 1163.69231,43 1164.07692,42.6153864 C1164.46154,42.2307707 1164.84615,42.0384628 1165.23077,42.0384628 L1171.76923,42.0384628 L1171.76923,39.7307727 L1170.61538,39.7307727 C1170.23077,39.7307727 1170.03846,39.5384651 1169.65384,39.346157 C1169.26923,39.1538494 1169.26923,38.7692335 1169.26923,38.3846178 L1169.26923,34.346155 C1169.26923,33.9615393 1169.46153,33.7692314 1169.65384,33.3846157 C1169.84615,33 1170.23077,33 1170.61538,33 L1174.65385,33 C1175.03846,33 1175.23077,33.1923076 1175.61538,33.3846157 C1176,33.5769233 1176,33.9615393 1176,34.346155 L1176,38.3846178 C1176,38.7692335 1175.80769,38.9615413 1175.61538,39.346157 C1175.42308,39.7307727 1175.03846,39.7307727 1174.65385,39.7307727 L1173.5,39.7307727 L1173.5,42.2307686 L1180.03846,42.2307686 C1180.42307,42.2307686 1180.80769,42.4230762 1181.1923,42.8076921 C1181.57692,43.1923079 1181.76923,43.5769236 1181.76923,43.9615372 L1181.76923,46.4615331 L1182.92307,46.4615331 C1183.30769,46.4615331 1183.5,46.6538407 1183.88461,46.8461488 C1184.26924,47.0384564 1184.26924,47.2307645 1184.26924,47.6153802 L1184.26924,47.6153822 Z"></path>
            </g>
        </g>
    </g>
</svg>