<?xml version="1.0" encoding="UTF-8"?>
<svg width="12px" height="12px" viewBox="0 0 12 12" version="1.1" xmlns="http://www.w3.org/2000/svg" xmlns:xlink="http://www.w3.org/1999/xlink">
    <!-- Generator: Sketch 61.2 (89653) - https://sketch.com -->
    <title>形状结合</title>
    <desc>Created with Sketch.</desc>
    <g id="编辑问题" stroke="none" stroke-width="1" fill="none" fill-rule="evenodd">
        <g id="1" transform="translate(-85.000000, -343.000000)" fill="#333E48" fill-rule="nonzero">
            <g id="侧边栏2" transform="translate(70.000000, 70.000000)">
                <path d="M21,273 C24.3137085,273 27,275.686292 27,279 C27,282.313708 24.3137085,285 21,285 C17.6862915,285 15,282.313708 15,279 C15,275.686292 17.6862915,273 21,273 Z M21,274.5 C18.5147186,274.5 16.5,276.514719 16.5,279 C16.5,281.485281 18.5147186,283.5 21,283.5 C23.4852814,283.5 25.5,281.485281 25.5,279 C25.5,276.514719 23.4852814,274.5 21,274.5 Z M21,276 C22.6568542,276 24,277.343146 24,279 C24,280.656854 22.6568542,282 21,282 C19.3431458,282 18,280.656854 18,279 C18,277.343146 19.3431458,276 21,276 Z M21,277.5 C20.1715729,277.5 19.5,278.171573 19.5,279 C19.5,279.828427 20.1715729,280.5 21,280.5 C21.8284271,280.5 22.5,279.828427 22.5,279 C22.5,278.171573 21.8284271,277.5 21,277.5 Z" id="形状结合"></path>
            </g>
        </g>
    </g>
</svg>