<?xml version="1.0" encoding="UTF-8"?>
<svg width="24px" height="23px" viewBox="0 0 24 23" version="1.1" xmlns="http://www.w3.org/2000/svg" xmlns:xlink="http://www.w3.org/1999/xlink">
    <!-- Generator: Sketch 61.2 (89653) - https://sketch.com -->
    <title>路径</title>
    <desc>Created with Sketch.</desc>
    <g id="Page-1" stroke="none" stroke-width="1" fill="none" fill-rule="evenodd">
        <g id="1" transform="translate(-385.000000, -388.000000)" fill="#DBDBDB" fill-rule="nonzero">
            <g id="编组-3" transform="translate(343.000000, 316.000000)">
                <g id="五角星" transform="translate(42.000000, 72.000000)">
                    <path d="M23.9450872,8.62679137 C23.8236348,8.25628508 23.4780343,8.00723199 23.0890791,8.00723199 L15.2657092,8.00723199 L12.8480449,0.618328271 C12.7305899,0.249053084 12.3862187,-2.22222e-06 11.9948058,-2.22222e-06 C11.6058506,-2.22222e-06 11.260251,0.249050862 11.1415666,0.615561607 L8.72112461,8.0072431 L0.89928799,8.0072431 C0.509103935,8.0072431 0.16442428,8.25629619 0.0445110666,8.62680248 C-0.0769412564,8.9936199 0.0561950771,9.39917727 0.370741851,9.62486371 L6.70009108,14.1896147 L4.28364905,21.5825184 C4.16096695,21.9505647 4.29410317,22.3524332 4.60987983,22.5805796 C4.92165952,22.807495 5.35212131,22.807495 5.66543878,22.5805796 L11.994788,18.0130509 L18.3253595,22.5805796 C18.4806337,22.6931151 18.6660413,22.7515352 18.8526767,22.7515352 C19.0377761,22.7515352 19.2244119,22.6931153 19.3809162,22.5805796 C19.6954625,22.3524332 19.8285979,21.9505647 19.7059158,21.5825184 L17.2919405,14.1896147 L23.6176008,9.62486371 C23.9318383,9.39917727 24.0637448,8.9936199 23.9450605,8.62680248 L23.9450872,8.62679137 Z" id="路径"></path>
                </g>
            </g>
        </g>
    </g>
</svg>