<?xml version="1.0" encoding="UTF-8"?>
<svg width="14px" height="13px" viewBox="0 0 14 13" version="1.1" xmlns="http://www.w3.org/2000/svg" xmlns:xlink="http://www.w3.org/1999/xlink">
    <!-- Generator: Sketch 61.2 (89653) - https://sketch.com -->
    <title>形状</title>
    <desc>Created with Sketch.</desc>
    <g id="编辑问题" stroke="none" stroke-width="1" fill="none" fill-rule="evenodd">
        <g id="6" transform="translate(-1146.000000, -411.000000)" fill="#A4B9A7" fill-rule="nonzero">
            <g id="card3" transform="translate(296.000000, 390.000000)">
                <path d="M864,31.024868 L859.99005,28.352086 L859.99005,30.0216 L858.97904,30.0216 L857.223342,27.87708 L855.928538,29.459598 L857.728154,31.658942 C857.917868,31.891706 858.201592,32.026582 858.504146,32.026582 L859.990064,32.026582 L859.990064,33.697594 L864,31.024868 Z M852.49081,22.67034 L851.004822,22.67034 C850.44989,22.67034 850.001554,23.11862 850.001554,23.673608 C850.001554,24.226132 850.449862,24.675322 851.004822,24.675322 L852.014264,24.675322 L853.769962,26.82057 L855.064766,25.23724 L853.265192,23.037882 C853.073924,22.805874 852.7902,22.67034 852.49081,22.67034 M864,23.672768 L859.99005,21 L859.99005,22.669514 L858.504132,22.669514 C858.201592,22.669514 857.917868,22.805874 857.72814,23.037154 L852.01425,30.0216 L851.003268,30.0216 C850.451458,30.0216 850,30.471434 850,31.024868 C850,31.579044 850.451458,32.026582 851.003268,32.026582 L852.489214,32.026582 C852.790186,32.026582 853.073924,31.891706 853.266732,31.658942 L858.97904,24.674496 L859.99005,24.674496 L859.99005,26.345578 L864,23.672768 L864,23.672768 Z" id="形状"></path>
            </g>
        </g>
    </g>
</svg>