<?xml version="1.0" encoding="UTF-8"?>
<svg width="20px" height="20px" viewBox="0 0 20 20" version="1.1" xmlns="http://www.w3.org/2000/svg" xmlns:xlink="http://www.w3.org/1999/xlink">
    <!-- Generator: Sketch 61.2 (89653) - https://sketch.com -->
    <title>营销 (2)</title>
    <desc>Created with Sketch.</desc>
    <g id="控件" stroke="none" stroke-width="1" fill="none" fill-rule="evenodd">
        <g id="head" transform="translate(-1059.000000, -33.000000)" fill="#00bf6f" fill-rule="nonzero">
            <g id="营销-(2)">
                <g transform="translate(1059.000000, 33.000000)">
                    <path d="M18.6157737,6.78626772 L11.7843182,10.3635939 C11.1542883,10.6898141 10.7679926,11.3444737 10.7679926,12.0701472 L10.7679926,18.989566 C10.7679926,19.732993 11.522189,20.2212137 12.1522189,19.8794592 L18.9836744,16.302133 C19.599908,15.9759128 20,15.3212532 20,14.5955797 L20,7.69169519 C20,6.93495311 19.2458036,6.45782834 18.6157737,6.78626772 Z M8.21568177,10.3480596 L1.38422626,6.78626772 C0.754196367,6.46004752 0,6.93495311 0,7.6761609 L0,14.6244291 C0,15.3523218 0.383996321,16.0047622 1.01632559,16.3309824 L7.84548172,19.8972127 C8.47551161,20.2234329 9.22970798,19.732993 9.22970798,18.9917852 L9.22970798,12.0568321 C9.22970798,11.3289394 8.84571166,10.676499 8.21568177,10.3480596 L8.21568177,10.3480596 Z M17.9834445,5.16626267 C18.3053576,5.00204298 18.459416,4.72020649 18.429524,4.45390429 C18.459416,4.17206779 18.3053576,3.90354641 17.9834445,3.7415459 L11.0301219,0.237452795 C10.7220051,0.0732331049 10.3541044,0 9.98390435,0 C9.6137043,0 9.24580363,0.0732331049 8.93768682,0.237452795 L1.98436422,3.72601161 C1.66245114,3.8902313 1.52218901,4.17206779 1.53828466,4.43836999 C1.52218901,4.72020649 1.66245114,5.00204298 1.98436422,5.16626267 L8.93768682,8.65482148 C9.24580363,8.81904117 9.6137043,8.89227428 9.98390435,8.89227428 C10.3541044,8.89227428 10.7220051,8.81904117 11.0301219,8.65482148 L17.9834445,5.16626267 Z" id="形状"></path>
                </g>
            </g>
        </g>
    </g>
</svg>