<?xml version="1.0" encoding="UTF-8"?>
<svg width="12px" height="12px" viewBox="0 0 12 12" version="1.1" xmlns="http://www.w3.org/2000/svg" xmlns:xlink="http://www.w3.org/1999/xlink">
    <!-- Generator: Sketch 61.2 (89653) - https://sketch.com -->
    <title>形状</title>
    <desc>Created with Sketch.</desc>
    <g id="编辑问题" stroke="none" stroke-width="1" fill="none" fill-rule="evenodd">
        <g id="1" transform="translate(-85.000000, -121.000000)" fill="#333E48" fill-rule="nonzero">
            <g id="侧边栏2" transform="translate(70.000000, 70.000000)">
                <path d="M26.824087,53.3933734 L25.3495033,54.8625314 L23.6410247,54.8625314 L23.3728889,55.1310059 L22.346447,56.1527016 L21.7078025,56.788973 L21.1674632,57.3269393 L21.1674633,57.3269393 C21.005558,57.4885738 20.7432768,57.4883535 20.5816423,57.3264477 C20.5789107,57.3237115 20.5762176,57.3209373 20.5735637,57.3181258 C20.4183089,57.1537185 20.4345804,56.891346 20.5949197,56.7320235 L21.6694975,55.6611746 L21.7515315,55.5791406 L22.7813636,54.5533761 L23.0559401,54.2798168 L23.0559401,52.5774437 L23.5644149,52.0689689 L24.530518,51.1082893 L24.530518,51.1082893 C24.5428479,51.0959877 24.5561074,51.0846547 24.5701791,51.074391 L24.5800096,51.0672723 L24.5800096,51.0672723 C24.5934276,51.0576507 24.6074698,51.0489309 24.6220435,51.0411706 L24.6257724,51.0394757 L24.6257724,51.0394757 C24.6391871,51.0327661 24.6529979,51.0268794 24.6671282,51.0218486 L24.6776367,51.0181198 L24.6776367,51.0181198 C24.6922792,51.0132874 24.7072276,51.0094371 24.7223825,51.0065943 L24.7288232,51.0065943 L24.7288232,51.0065943 C24.7423465,51.0035873 24.756046,51.0014361 24.7698401,51.0001536 L24.7800096,51.0001536 L24.7800096,51.0001536 C24.7952846,50.9996956 24.8105731,51.0002619 24.8257723,51.0018486 L24.83323,51.0018486 L24.83323,51.0018486 C24.8462239,51.003564 24.8591219,51.00594 24.8718741,51.0089672 L24.8827216,51.0113401 L24.8827216,51.0113401 C24.8973386,51.0151021 24.911715,51.0197433 24.9257725,51.0252384 L24.9318742,51.0279503 L24.9318742,51.0279503 C24.9441404,51.0330925 24.9561337,51.0388628 24.9678065,51.0452384 L24.977637,51.0506621 L24.977637,51.0506622 C24.990639,51.058313 25.0032012,51.0666878 25.0152642,51.075747 L25.019671,51.0791368 L25.019671,51.0791368 C25.0303222,51.0877395 25.0405062,51.0969051 25.0501794,51.1065944 L25.0501794,51.1065944 C25.0531678,51.1091306 25.055998,51.1118475 25.058654,51.11473 L25.058654,51.11473 C25.0691718,51.1254126 25.079021,51.1367336 25.0881456,51.1486284 C25.0881456,51.1486284 25.0881456,51.1510013 25.0905184,51.1520182 L25.0905185,51.1520182 C25.0989195,51.1636865 25.106508,51.1759188 25.1132304,51.1886285 C25.1152643,51.1923573 25.1172982,51.1957471 25.1189931,51.1994759 L25.1189931,51.1994759 C25.1262142,51.2137639 25.1325537,51.2284807 25.1379761,51.2435437 L25.1379761,51.2459165 L25.1379761,51.2459165 C25.1430028,51.2608726 25.1469674,51.2761648 25.1498405,51.2916791 C25.1498405,51.2960859 25.1515354,51.3001537 25.1522134,51.3045605 L25.1522134,51.3045606 C25.1551316,51.3218208 25.1568307,51.339265 25.1572981,51.3567639 L25.1867897,52.7364257 L25.2166203,52.7364257 L26.5725515,52.7652393 L26.5725516,52.7652393 C26.6404243,52.7672542 26.706347,52.7884057 26.7627213,52.8262563 L26.7627213,52.8262564 C26.7831892,52.8389194 26.8022761,52.853689 26.8196704,52.8703242 L26.8196704,52.8703242 C26.8444137,52.8943384 26.8656404,52.9217277 26.8827214,52.9516802 L26.8827214,52.9516802 C26.8996635,52.9814698 26.9125461,53.0133911 26.9210265,53.0465956 L26.9210265,53.0465957 C26.9531381,53.1712095 26.9161587,53.3034827 26.8240772,53.3933761 L26.824087,53.3933734 Z M20.8020488,53.8879497 C18.9959412,53.8879497 17.5267949,55.3516819 17.5267949,57.1513442 C17.5267949,58.9510064 18.9959529,60.4147386 20.8020488,60.4147386 C22.6081563,60.4147386 24.0776441,58.9506666 24.0776441,57.1513442 L24.0776441,57.1512065 C24.0780632,56.7204892 23.9922939,56.2940422 23.8253856,55.8969824 L22.6416499,57.0763002 C22.6416499,57.1007069 22.6443617,57.1251137 22.6443617,57.1498595 L22.6443617,57.1498647 C22.6482738,58.1673733 21.8265924,58.9953942 20.8090862,58.9993083 C19.7915776,59.0032204 18.9635567,58.181539 18.9596426,57.1640327 C18.9557357,56.1478647 19.7753283,55.3204017 20.7914846,55.3146009 L21.9979313,54.1122323 L21.9979311,54.1122322 C21.6169084,53.9630207 21.2111954,53.8868921 20.8019961,53.8878164 L20.8020488,53.8879497 Z M25.9613751,55.4723617 L25.9613751,55.4723617 C25.7987562,55.6342224 25.5786145,55.7250347 25.3491705,55.7249046 L24.6871353,55.7249046 L24.6871355,55.7249049 C24.8566732,56.1813613 24.943344,56.6644228 24.9430674,57.1513479 C24.9430674,59.4262647 23.0854324,61.2771145 20.802043,61.2771145 C18.5186537,61.2771145 16.6610187,59.4262647 16.6610187,57.1513479 C16.6610187,54.8764312 18.5186537,53.0252416 20.802043,53.0252416 L20.8020432,53.0252416 C21.2756711,53.0247606 21.7458361,53.10595 22.1918769,53.2652419 L22.1918769,52.5774442 L22.1918768,52.5771942 C22.1918768,52.3481615 22.2831991,52.1285824 22.4456139,51.9670978 L22.719513,51.6959115 L22.7195129,51.6959115 C22.1038044,51.48068 21.4561599,51.3710017 20.8039169,51.3715028 C17.602714,51.3703248 15,53.9635426 15,57.151351 C15,60.3391477 17.602714,62.9323695 20.8020419,62.9323695 C24.0013698,62.9323695 26.6040861,60.3391477 26.6040861,57.1516792 L26.6040861,57.1517614 C26.6046983,56.4790223 26.4868633,55.8114278 26.2559755,55.1795521 L25.9613751,55.4723617 Z" id="形状"></path>
            </g>
        </g>
    </g>
</svg>