<?xml version="1.0" encoding="UTF-8"?>
<svg width="18px" height="20px" viewBox="0 0 18 20" version="1.1" xmlns="http://www.w3.org/2000/svg" xmlns:xlink="http://www.w3.org/1999/xlink">
    <!-- Generator: Sketch 61.2 (89653) - https://sketch.com -->
    <title>ico_notification</title>
    <desc>Created with Sketch.</desc>
    <g id="控件" stroke="none" stroke-width="1" fill="none" fill-rule="evenodd">
        <g id="head" transform="translate(-959.000000, -35.000000)" fill="#A4B9A7" fill-rule="nonzero">
            <g id="ico_notification">
                <path d="M967.75,55 C969.129679,55 970.248813,53.8808594 970.248813,52.5 L965.251187,52.5 C965.251187,53.8808594 966.370321,55 967.75,55 Z M976.163621,49.1519531 C975.408938,48.3410156 973.996837,47.1210937 973.996837,43.125 C973.996837,40.0898437 971.868725,37.6601562 968.999211,37.0640625 L968.999211,36.25 C968.999211,35.5597656 968.43984,35 967.75,35 C967.06016,35 966.500789,35.5597656 966.500789,36.25 L966.500789,37.0640625 C963.631275,37.6601562 961.503163,40.0898437 961.503163,43.125 C961.503163,47.1210937 960.091062,48.3410156 959.336379,49.1519531 C959.102006,49.4039062 958.9981,49.7050781 959.000026,50 C959.00435,50.640625 959.507081,51.25 960.253952,51.25 L975.246048,51.25 C975.992919,51.25 976.49604,50.640625 976.499974,50 C976.5019,49.7050781 976.397994,49.4035156 976.163621,49.1519531 L976.163621,49.1519531 Z"></path>
            </g>
        </g>
    </g>
</svg>