<?xml version="1.0" encoding="UTF-8"?>
<svg width="20px" height="20px" viewBox="0 0 20 20" version="1.1" xmlns="http://www.w3.org/2000/svg" xmlns:xlink="http://www.w3.org/1999/xlink">
    <!-- Generator: Sketch 61.2 (89653) - https://sketch.com -->
    <title>形状</title>
    <desc>Created with Sketch.</desc>
    <g id="控件" stroke="none" stroke-width="1" fill="none" fill-rule="evenodd">
        <g id="head" transform="translate(-756.000000, -36.000000)" fill="#00bf6f" fill-rule="nonzero">
            <g id="形状">
                <path d="M770.095143,37.5860203 C770.095143,37.5860203 771.156822,36.6057159 771.220156,36.5423645 C771.28349,36.4790116 772.663506,35.2586338 774.435201,36.7007469 C774.860205,37.0741967 776.620225,38.7930523 775.771883,40.3618808 C775.55188,40.6919821 775.346878,40.8620354 774.340199,41.8673462 L770.095143,37.5843625 L770.095143,37.5860203 Z M768.36679,39.2932156 L772.608514,43.5745386 L763.025063,53.2825504 L762.166719,54.052788 C762.166719,54.052788 761.846715,54.4062311 760.940038,54.7563392 L760.940036,54.75634 C759.709725,55.2521689 758.443222,55.6529111 757.151669,55.955044 C756.706663,56.0183969 755.909989,56.1617756 756.008322,55.1381246 C756.103324,54.1128071 756.758331,52.3489247 757.120002,51.2135818 C757.581673,50.1415825 757.933345,49.8198161 758.585018,49.1329405 C759.240026,48.446061 768.368458,39.2932156 768.368458,39.2932156 L768.36679,39.2932156 Z"></path>
            </g>
        </g>
    </g>
</svg>