<?xml version="1.0" encoding="UTF-8"?>
<svg width="14px" height="15px" viewBox="0 0 14 15" version="1.1" xmlns="http://www.w3.org/2000/svg" xmlns:xlink="http://www.w3.org/1999/xlink">
    <!-- Generator: Sketch 61.2 (89653) - https://sketch.com -->
    <title>形状结合</title>
    <desc>Created with Sketch.</desc>
    <g id="编辑问题" stroke="none" stroke-width="1" fill="none" fill-rule="evenodd">
        <g id="1" transform="translate(-252.000000, -160.000000)" fill="#A4B9A7" fill-rule="nonzero">
            <g id="侧边栏2" transform="translate(70.000000, 70.000000)">
                <path d="M189.1175,90 C190.6475,90 191.8925,91.215 191.9375,92.745 L191.9375,92.745 L195.29,92.745 C195.6875,92.745 196.01,93.0675 196.01,93.465 C196.01,93.8625 195.6875,94.185 195.29,94.185 L195.29,94.185 L194.57,94.185 L194.57,102.2475 C194.57,103.77 193.5425,105 192.275,105 L192.275,105 L185.81,105 C184.5425,105 183.515,103.7625 183.515,102.2475 L183.515,102.2475 L183.515,94.1775 L182.72,94.1775 C182.3225,94.1775 182,93.855 182,93.4575 C182,93.06 182.3225,92.7375 182.72,92.7375 L182.72,92.7375 L186.29,92.7375 C186.3425,91.215 187.5875,90 189.1175,90 Z M193.22,94.185 L184.865,94.185 L184.865,102.2475 C184.865,103.0725 185.36,103.65 185.81,103.65 L185.81,103.65 L185.81,103.6575 L192.275,103.6575 C192.725,103.6575 193.22,103.08 193.22,102.255 L193.22,102.255 L193.22,94.185 Z M186.7775,96.195 C187.1075,96.195 187.3775,96.525 187.3775,96.9375 L187.3775,96.9375 L187.3775,101.175 C187.3775,101.5875 187.1075,101.9175 186.7775,101.9175 C186.44,101.9175 186.1775,101.5875 186.1775,101.175 L186.1775,101.175 L186.1775,96.9375 C186.1775,96.525 186.4475,96.195 186.7775,96.195 Z M188.9525,96.195 C189.2825,96.195 189.5525,96.525 189.5525,96.9375 L189.5525,96.9375 L189.5525,101.175 C189.5525,101.5875 189.2825,101.9175 188.9525,101.9175 C188.6225,101.9175 188.3525,101.5875 188.3525,101.175 L188.3525,101.175 L188.3525,96.9375 C188.3525,96.525 188.6225,96.195 188.9525,96.195 Z M191.24,96.195 C191.57,96.195 191.84,96.525 191.84,96.9375 L191.84,96.9375 L191.84,101.175 C191.84,101.5875 191.57,101.9175 191.24,101.9175 C190.9025,101.9175 190.64,101.5875 190.64,101.175 L190.64,101.175 L190.64,96.9375 C190.64,96.525 190.91,96.195 191.24,96.195 Z M189.1175,91.35 C188.33,91.35 187.6925,91.9575 187.64,92.7375 L187.64,92.7375 L190.5875,92.7375 C190.5425,91.9575 189.905,91.35 189.1175,91.35 Z" id="形状结合"></path>
            </g>
        </g>
    </g>
</svg>