<?xml version="1.0" encoding="UTF-8"?>
<svg width="14px" height="15px" viewBox="0 0 14 15" version="1.1" xmlns="http://www.w3.org/2000/svg" xmlns:xlink="http://www.w3.org/1999/xlink">
    <!-- Generator: Sketch 61.2 (89653) - https://sketch.com -->
    <title>路径</title>
    <desc>Created with Sketch.</desc>
    <g id="编辑问题" stroke="none" stroke-width="1" fill="none" fill-rule="evenodd">
        <g id="10" transform="translate(-1362.000000, -660.000000)" fill="#A4B9A7" fill-rule="nonzero">
            <g id="edit" transform="translate(890.000000, 70.000000)">
                <g id="编组-8" transform="translate(26.000000, -72.000000)">
                    <path d="M458.982682,668.186461 L454.01731,668.186461 L454.01731,663.221088 C454.01731,662.659234 453.561831,662.203771 453.000024,662.203771 C452.438154,662.203771 451.98269,662.659234 451.98269,663.221088 L451.98269,668.186461 L447.017318,668.186461 C446.455463,668.186461 446,668.641956 446,669.203771 C446,669.765601 446.455463,670.221065 447.017318,670.221065 L451.982706,670.221065 L451.982706,675.186437 C451.982706,675.74826 452.438169,676.203755 453.000039,676.203755 C453.561846,676.203755 454.017325,675.74826 454.017325,675.186437 L454.017325,670.221049 L458.982682,670.221049 C459.544537,670.221049 460,669.765586 460,669.203771 C460,668.64194 459.544537,668.186445 458.982682,668.186445 L458.982682,668.186461 Z" id="路径"></path>
                </g>
            </g>
        </g>
    </g>
</svg>