<?xml version="1.0" encoding="UTF-8"?>
<svg width="14px" height="15px" viewBox="0 0 14 15" version="1.1" xmlns="http://www.w3.org/2000/svg" xmlns:xlink="http://www.w3.org/1999/xlink">
    <!-- Generator: Sketch 61.2 (89653) - https://sketch.com -->
    <title>形状</title>
    <desc>Created with Sketch.</desc>
    <g id="Page-1" stroke="none" stroke-width="1" fill="none" fill-rule="evenodd">
        <g id="2" transform="translate(-1114.000000, -480.000000)" fill="#9CB2CD" fill-rule="nonzero">
            <g id="移动" transform="translate(1114.000000, 477.000000)">
                <path d="M5.83815752,4.0526672 C5.90355293,4.0011857 6.00234175,3.98588039 6.08721665,4.01370822 C6.17348294,4.04153606 6.22913861,4.10693148 6.22913861,4.17928385 L6.22913861,6.89110646 L13.0678293,6.89110646 C13.1277381,6.89117834 13.1762859,6.93972625 13.1764416,6.99963502 L13.1764416,9.01019616 C13.1777492,9.07002601 13.1290505,9.11733333 13.0692207,9.11733333 L-0.103085448,9.11733333 C-0.354927363,9.11733333 -0.309011434,8.86270863 -0.243616019,8.81122714 L5.83815752,4.0526672 Z M7.5718317,17.3571555 C7.50643628,17.408637 7.40764746,17.4239424 7.32138117,17.3961145 C7.23650627,17.3682867 7.1808506,17.3028913 7.1808506,17.2305389 L7.1808506,14.5187163 L0.342159923,14.5187163 C0.282251157,14.5186444 0.233631362,14.4700965 0.233631362,14.4101877 L0.233631362,12.3996266 C0.233631362,12.3397182 0.282250722,12.2911702 0.342159487,12.291098 L13.5144656,12.291098 C13.7649161,12.291098 13.7190002,12.5471141 13.6522134,12.5985956 L7.5718317,17.3571555 Z" id="形状" transform="translate(6.704911, 10.704911) rotate(90.000000) translate(-6.704911, -10.704911) "></path>
            </g>
        </g>
    </g>
</svg>