<?xml version="1.0" encoding="UTF-8"?>
<svg width="13px" height="13px" viewBox="0 0 13 13" version="1.1" xmlns="http://www.w3.org/2000/svg" xmlns:xlink="http://www.w3.org/1999/xlink">
    <!-- Generator: Sketch 61.2 (89653) - https://sketch.com -->
    <title>形状</title>
    <desc>Created with Sketch.</desc>
    <g id="编辑问题" stroke="none" stroke-width="1" fill="none" fill-rule="evenodd">
        <g id="1" transform="translate(-289.000000, -29.000000)" fill="#60C171" fill-rule="nonzero">
            <g id="head">
                <g id="link" transform="translate(283.000000, 23.000000)">
                    <path d="M14.0373398,15.6807035 C13.554121,15.6807035 13.1623398,15.2889223 13.1623398,14.8057035 C13.1623398,14.3224847 13.554121,13.9307035 14.0373398,13.9307035 L15.7873398,13.9307035 C16.7537801,13.9307035 17.5373398,13.1473626 17.5373398,12.1807035 C17.5373398,11.2140444 16.7537801,10.4307035 15.7873398,10.4307035 L14.0373398,10.4307035 C13.554121,10.4307035 13.1623398,10.0389223 13.1623398,9.55570348 C13.1623398,9.07248466 13.554121,8.68070348 14.0373398,8.68070348 L15.7873398,8.68048473 C17.7204324,8.68048473 19.2873398,10.2478296 19.2873398,12.1807035 C19.2873398,14.1135774 17.7204324,15.6807035 15.7873398,15.6807035 L14.0373398,15.6807035 Z M10.5373398,11.3057035 L14.0373398,11.3057035 C14.5205586,11.3057035 14.9123398,11.6974847 14.9123398,12.1807035 C14.9123398,12.6639223 14.5205586,13.0557035 14.0373398,13.0557035 L10.5373398,13.0557035 C10.054121,13.0557035 9.6623398,12.6639223 9.6623398,12.1807035 C9.6623398,11.6974847 10.054121,11.3057035 10.5373398,11.3057035 Z M8.78733977,10.4307035 C7.82089944,10.4307035 7.0373398,11.2140444 7.0373398,12.1807035 C7.0373398,13.1473626 7.82089944,13.9307035 8.78733977,13.9307035 L10.5364648,13.9307035 C11.0205586,13.9307035 11.4123398,14.3224847 11.4123398,14.8057035 C11.4123398,15.2889223 11.0205586,15.6807035 10.5373398,15.6807035 L8.78733977,15.6807035 C6.85446589,15.6807035 5.28733977,14.1135774 5.28733977,12.1807035 C5.28733977,10.2478296 6.85446589,8.68048472 8.78733977,8.68048472 L10.5373398,8.68048472 C11.0205586,8.68070347 11.4123398,9.07248466 11.4123398,9.55570347 C11.4123398,10.0389223 11.0205586,10.4307035 10.5373398,10.4307035 L8.78733977,10.4307035 Z" id="形状" transform="translate(12.287340, 12.180594) scale(-1, 1) rotate(45.000000) translate(-12.287340, -12.180594) "></path>
                </g>
            </g>
        </g>
    </g>
</svg>