<?xml version="1.0" encoding="UTF-8"?>
<svg width="10px" height="13px" viewBox="0 0 10 13" version="1.1" xmlns="http://www.w3.org/2000/svg" xmlns:xlink="http://www.w3.org/1999/xlink">
    <!-- Generator: Sketch 61.2 (89653) - https://sketch.com -->
    <title>形状</title>
    <desc>Created with Sketch.</desc>
    <g id="编辑问题" stroke="none" stroke-width="1" fill="none" fill-rule="evenodd">
        <g id="1" transform="translate(-1205.000000, -95.000000)" fill="#00BF6F" fill-rule="nonzero">
            <g id="operation" transform="translate(297.000000, 85.000000)">
                <g id="version" transform="translate(901.001193, 4.000000)">
                    <path d="M11.1865079,15.0911553 C11.7112746,14.7940025 12.3534787,14.7940025 12.8782453,15.0911554 L15.4294659,16.6447454 L15.4294659,8.07988016 C15.4300656,7.90852592 15.2916636,7.76910834 15.1203103,7.7684778 L8.9467107,7.7684778 C8.7753572,7.76785663 8.63594139,7.90625909 8.63531299,8.07761296 L8.63531299,16.6436126 L11.1865079,15.0911553 Z M7.3999153,8.07874776 C7.3999153,7.22495265 8.09065139,6.5330842 8.94671121,6.5330842 L15.1180419,6.5330842 C15.9729694,6.5330842 16.6648378,7.22382029 16.6648378,8.07874776 L16.6648378,17.1339224 C16.6648378,17.9548792 15.9027634,18.3795121 15.2007038,17.9514822 L12.2362003,16.1453771 C12.1063241,16.0882407 11.9584285,16.0882407 11.8285528,16.1453771 L8.86404937,17.9514822 C8.16425444,18.3783797 7.3999153,17.9560116 7.3999153,17.1339224 L7.3999153,8.07874776 Z" id="形状"></path>
                </g>
            </g>
        </g>
    </g>
</svg>