<?xml version="1.0" encoding="UTF-8"?>
<svg width="12px" height="11px" viewBox="0 0 12 11" version="1.1" xmlns="http://www.w3.org/2000/svg" xmlns:xlink="http://www.w3.org/1999/xlink">
    <!-- Generator: Sketch 61.2 (89653) - https://sketch.com -->
    <title>形状</title>
    <desc>Created with Sketch.</desc>
    <g id="编辑问题" stroke="none" stroke-width="1" fill="none" fill-rule="evenodd">
        <g id="1" transform="translate(-1117.000000, -95.000000)" fill="#00BF6F" fill-rule="nonzero">
            <g id="operation" transform="translate(297.000000, 85.000000)">
                <g id="export" transform="translate(814.001193, 4.000000)">
                    <path d="M17.763483,16.1588971 C17.763483,16.6232314 17.3854825,17.0000643 16.923482,17.0000643 L6.83880816,17.0000643 C6.37568519,16.9981466 6.00072538,16.6231863 5.99880722,16.1600633 C5.99880722,15.6980628 6.37564144,15.320057 6.83880819,15.320057 L16.923482,15.320057 C17.3854825,15.3188961 17.763483,15.6968966 17.763483,16.1588971 Z M11.8811382,6.00001022 C12.1049375,5.99890765 12.3199485,6.08709611 12.4784727,6.24507604 L16.091639,9.85941813 C16.4183056,10.1860847 16.4183056,10.7227529 16.091639,11.0494195 C15.7628383,11.3753601 15.2327722,11.3753601 14.9039715,11.0494195 L12.7234689,8.86775489 L12.7234689,13.2587623 C12.6934974,13.723003 12.2928577,14.0750488 11.8286164,14.0450772 C11.406159,14.0178033 11.0695749,13.681219 11.0423008,13.2587617 L11.0423008,8.86541634 L8.86063615,11.047081 C8.53156196,11.3745665 7.999709,11.3745665 7.67063479,11.047081 C7.34469412,10.7182802 7.34469412,10.1882141 7.67063483,9.85941337 L11.2873012,6.24507127 C11.4506351,6.08173729 11.6653016,6.00001022 11.8823018,6.00001022 L11.8811382,6.00001022 Z" id="形状"></path>
                </g>
            </g>
        </g>
    </g>
</svg>