<?xml version="1.0" encoding="UTF-8"?>
<svg width="16px" height="16px" viewBox="0 0 16 16" version="1.1" xmlns="http://www.w3.org/2000/svg" xmlns:xlink="http://www.w3.org/1999/xlink">
    <!-- Generator: Sketch 61.2 (89653) - https://sketch.com -->
    <title>形状</title>
    <desc>Created with Sketch.</desc>
    <g id="编辑问题" stroke="none" stroke-width="1" fill="none" fill-rule="evenodd">
        <g id="3" transform="translate(-321.000000, -156.000000)" fill="#A4B9A7" fill-rule="nonzero">
            <g id="operation" transform="translate(316.000000, 100.000000)">
                <path d="M6.60455271,56 C5.72058246,56.0041943 5.00418884,56.7205874 5,57.6045576 L5,68.601817 C5,69.418756 5.69544613,70.2063698 6.60036387,70.2063698 L11.140076,70.2063698 L13.2225486,72 L14.8477176,70.2063698 L18.7539011,70.2063698 C19.629492,70.2063698 20.3416951,69.4983555 20.3416951,68.6227645 L20.3416951,57.6045527 C20.350074,56.7289618 19.646249,56.0125682 18.7706581,56 L18.7539004,56 L6.60455271,56 Z M15.1384157,67.1397079 L14.44716,66.2557377 C13.8606402,66.5699451 13.2028985,66.729144 12.536776,66.7207647 C11.3637346,66.7207647 10.3876,66.3185785 9.60836719,65.5183982 L9.60836749,65.5183985 C8.84811951,64.7582946 8.42669475,63.7236127 8.439515,62.6486401 C8.43113613,61.9322464 8.61965979,61.2242338 8.97995103,60.6041934 C9.7172905,59.3515526 11.0579052,58.5806991 12.5116416,58.5765086 C13.5883264,58.5639403 14.6231196,58.9954518 15.3688285,59.7663069 C16.1522518,60.5287844 16.5837632,61.5803264 16.5628173,62.6695892 C16.579575,63.6750523 16.2109054,64.6470046 15.5322163,65.3885231 L16.8937818,67.1313207 L15.1384127,67.1397079 L15.1384157,67.1397079 Z M12.5158301,60.021867 C11.8245744,60.0051093 11.162644,60.2774224 10.6808583,60.7717746 C10.1865061,61.2703173 9.93932834,61.9071115 9.93932834,62.6737777 C9.93932834,63.5326117 10.2493469,64.2112991 10.8693824,64.7098435 C11.3344094,65.0910822 11.9209293,65.3005538 12.5242127,65.2963633 C12.8677469,65.3005528 13.2112795,65.2293323 13.5254869,65.0910806 L12.126217,63.3063781 L13.9025384,63.3063781 L14.6063639,64.2071054 C14.9163825,63.7546465 15.0839591,63.2183993 15.0797702,62.669584 C15.0923385,61.969949 14.8242148,61.2954504 14.3298626,60.7969142 C13.8606467,60.2941827 13.2029051,60.0134909 12.5158432,60.0218686 L12.5158301,60.021867 Z" id="形状"></path>
            </g>
        </g>
    </g>
</svg>