<?xml version="1.0" encoding="UTF-8"?>
<svg width="13px" height="13px" viewBox="0 0 13 13" version="1.1" xmlns="http://www.w3.org/2000/svg" xmlns:xlink="http://www.w3.org/1999/xlink">
    <!-- Generator: Sketch 61.2 (89653) - https://sketch.com -->
    <title>路径</title>
    <desc>Created with Sketch.</desc>
    <g id="编辑问题" stroke="none" stroke-width="1" fill="none" fill-rule="evenodd">
        <g id="9" transform="translate(-950.000000, -384.000000)" fill="#60C171" fill-rule="nonzero">
            <g id="edit" transform="translate(890.000000, 70.000000)">
                <g id="编组-8" transform="translate(26.000000, 19.000000)">
                    <g id="新增" transform="translate(28.000000, 289.000000)">
                        <path d="M17.3907413,11.6062144 L13.1347028,11.6062144 L13.1347028,7.35017589 C13.1347028,6.86858601 12.7442918,6.4781884 12.2627422,6.4781884 C11.7811389,6.4781884 11.3907413,6.86858601 11.3907413,7.35017589 L11.3907413,11.6062144 L7.13470281,11.6062144 C6.65311292,11.6062144 6.26271532,11.9966389 6.26271532,12.4782018 C6.26271532,12.9597648 6.65311292,13.3501624 7.13470281,13.3501624 L11.3907547,13.3501624 L11.3907547,17.6062009 C11.3907547,18.0877639 11.7811523,18.4781884 12.2627557,18.4781884 C12.7443052,18.4781884 13.1347163,18.0877639 13.1347163,17.6062009 L13.1347163,13.350149 L17.3907413,13.350149 C17.8723312,13.350149 18.2627288,12.9597514 18.2627288,12.4781884 C18.2627288,11.9966254 17.8723312,11.6062009 17.3907413,11.6062009 L17.3907413,11.6062144 Z" id="路径"></path>
                    </g>
                </g>
            </g>
        </g>
    </g>
</svg>