<?xml version="1.0" encoding="UTF-8"?>
<svg width="14px" height="14px" viewBox="0 0 14 14" version="1.1" xmlns="http://www.w3.org/2000/svg" xmlns:xlink="http://www.w3.org/1999/xlink">
    <!-- Generator: Sketch 61.2 (89653) - https://sketch.com -->
    <title>形状</title>
    <desc>Created with Sketch.</desc>
    <g id="编辑问题" stroke="none" stroke-width="1" fill="none" fill-rule="evenodd">
        <g id="9" transform="translate(-1331.000000, -95.000000)" fill="#00BF6F" fill-rule="nonzero">
            <g id="edit" transform="translate(890.000000, 70.000000)">
                <g id="编组-8" transform="translate(26.000000, 19.000000)">
                    <g id="编组-5" transform="translate(409.396624, 0.000000)">
                        <path d="M12.9047888,19.2549567 C12.7199215,19.2549567 12.5349967,19.2549567 12.3501476,19.2549567 C12.3336422,19.2520127 12.3172524,19.2479921 12.3006124,19.2462416 C12.0625739,19.2217337 11.822208,19.2110571 11.5868238,19.1710826 C9.78152892,18.8642328 8.32934031,17.9756581 7.24940278,16.4963447 C6.54804212,15.5356106 6.14991256,14.4538496 6.03199113,13.2697664 C6.01989106,13.1482465 6.01058037,13.0264755 6,12.9048225 C6,12.7199358 6,12.5350491 6,12.3501624 C6.00313563,12.3300405 6.00713693,12.3099763 6.00923375,12.2897006 C6.03354931,12.0554331 6.04441824,11.8188947 6.08377702,11.5871857 C6.39062689,9.78191147 7.27902858,8.329627 8.75828941,7.24961426 C9.71898396,6.54821413 10.8007093,6.15000937 11.9848112,6.03202967 C12.1064274,6.0199296 12.2283522,6.01061891 12.3501406,6 C12.5349887,6 12.7199139,6 12.9047818,6 C12.9212679,6.00296249 12.937677,6.00700225 12.9542978,6.00871436 C13.1923364,6.03324159 13.4327022,6.04389885 13.6680864,6.08391164 C15.4733813,6.39072203 16.9255887,7.27929667 18.005545,8.75864961 C18.7068869,9.71940244 19.1050353,10.8011447 19.2229003,11.9852278 C19.2350196,12.1067477 19.2442919,12.2285376 19.2549106,12.3501718 C19.2549106,12.5350391 19.2549106,12.7199264 19.2549106,12.9048319 C19.251775,12.9249538 19.2477929,12.945018 19.2456769,12.9652745 C19.2213421,13.199542 19.2105117,13.4360992 19.1711336,13.6677706 C18.8643044,15.4730655 17.975882,16.9253481 16.4966212,18.005342 C15.5359266,18.706761 14.4542201,19.1049469 13.2700806,19.2229078 C13.1484644,19.2350464 13.0265791,19.2443378 12.9047888,19.2549567 L12.9047888,19.2549567 Z M17.6981384,13.0877488 C17.7566957,12.3540128 17.6680326,11.6471102 17.4202801,10.9627644 C17.0061076,9.81879798 16.2779492,8.92730011 15.2341619,8.30210676 C13.1405527,7.04808623 10.4460572,7.46706748 8.82788976,9.29931243 C7.26221062,11.0720778 7.32869463,13.3517805 8.00127613,14.7392673 C8.01075996,14.732996 8.02018608,14.7268594 8.02949678,14.7205881 C8.2775194,14.5528225 8.55333989,14.4680444 8.84987671,14.442884 C9.19088973,14.4139516 9.52342071,14.4632368 9.85075756,14.5527657 C10.344436,14.6877708 10.8333641,14.691445 11.3173273,14.5109445 C11.6978724,14.3690718 12.0220924,14.1386897 12.3205354,13.868334 C12.6401967,13.5787791 12.9128609,13.245498 13.2017052,12.9270305 C13.3507726,12.7626311 13.5002046,12.5920181 13.6763198,12.4600144 C14.0147743,12.2062976 14.3853184,12.0022135 14.7893903,11.8672265 C15.3303347,11.6865143 15.8666227,11.6829747 16.3931578,11.9218981 C16.7890747,12.1015329 17.110082,12.3785071 17.3904988,12.7053044 C17.4945516,12.8265743 17.5911013,12.9542125 17.6981363,13.0877746 L17.6981384,13.0877488 Z M11.8181031,11.0953715 C11.8174485,11.7274208 11.3034934,12.2386254 10.6703857,12.2369358 C10.0412014,12.2352773 9.53099871,11.7223225 9.53165228,11.0920422 C9.53228773,10.4600117 10.046262,9.94878826 10.6793885,9.95045727 C11.3085334,9.95215424 11.8187379,10.4651269 11.8181031,11.0953696 L11.8181031,11.0953715 Z" id="形状"></path>
                    </g>
                </g>
            </g>
        </g>
    </g>
</svg>