<?xml version="1.0" encoding="UTF-8"?>
<svg width="12px" height="11px" viewBox="0 0 12 11" version="1.1" xmlns="http://www.w3.org/2000/svg" xmlns:xlink="http://www.w3.org/1999/xlink">
    <!-- Generator: Sketch 61.2 (89653) - https://sketch.com -->
    <title>路径</title>
    <desc>Created with Sketch.</desc>
    <g id="编辑问题" stroke="none" stroke-width="1" fill="none" fill-rule="evenodd">
        <g id="1" transform="translate(-28.000000, -30.000000)" fill="#60C171" fill-rule="nonzero">
            <g id="head">
                <g id="back" transform="translate(22.000000, 23.000000)">
                    <path d="M7.07005629,11.6267636 L11.4692711,7.22754882 C11.7734032,6.92384739 12.2661485,6.92419466 12.5698513,7.22832659 C12.8735528,7.53245873 12.8732055,8.02520404 12.5690736,8.32890687 L9.17477757,11.7232029 L16.7418948,11.7232029 C17.1714596,11.7232029 17.51969,12.0714333 17.51969,12.5009981 C17.51969,12.9305629 17.1714596,13.2787932 16.7418948,13.2787932 L9.21054394,13.2787932 L12.536397,16.5346448 C12.8400848,16.8323482 12.8449357,17.3198721 12.5472317,17.6235599 C12.5457009,17.6251215 12.5441635,17.6266766 12.5426194,17.628225 C12.2381181,17.9334591 11.7445115,17.936236 11.4365949,17.6344474 L7.07471882,13.3659113 C7.02257832,13.3144234 6.97805419,13.2557564 6.94249367,13.1916854 C6.56032624,12.9955389 6.40952621,12.5267226 6.60567412,12.1445551 C6.67804397,12.0035512 6.79176204,11.8880213 6.93160518,11.8134328 C6.96814907,11.7446278 7.01481905,11.6817018 7.07005629,11.6267636 Z" id="路径"></path>
                </g>
            </g>
        </g>
    </g>
</svg>