<?xml version="1.0" encoding="UTF-8"?>
<svg width="7px" height="11px" viewBox="0 0 7 11" version="1.1" xmlns="http://www.w3.org/2000/svg" xmlns:xlink="http://www.w3.org/1999/xlink">
    <!-- Generator: Sketch 61.2 (89653) - https://sketch.com -->
    <title>编组 6</title>
    <desc>Created with Sketch.</desc>
    <g id="编辑问题" stroke="none" stroke-width="1" fill="none" fill-rule="evenodd">
        <g id="10" transform="translate(-1047.000000, -624.000000)" fill="#A4B9A7" fill-rule="nonzero">
            <g id="edit" transform="translate(890.000000, 70.000000)">
                <g id="编组-8" transform="translate(26.000000, -72.000000)">
                    <g id="编组-6" transform="translate(131.000000, 626.000000)">
                        <path d="M3.44732221,8.28099173 C2.8239933,8.28099173 2.32012183,8.77611636 2.32012183,9.38528133 C2.32012183,9.99452914 2.82581556,10.4895875 3.44732221,10.4895875 C4.07050202,10.4895875 4.57439006,9.99451257 4.57439006,9.38528133 C4.57439006,8.77611636 4.06869633,8.28099173 3.44732221,8.28099173 L3.44732221,8.28099173 Z M5.90336433,1.28483836 C5.30291307,0.75472634 4.49717593,0.4895875 3.4823593,0.4895875 C2.51856595,0.4895875 1.73913562,0.751230914 1.14562552,1.27438521 C0.552231378,1.79753951 0.206333285,2.51903854 0.187067027,3.18447821 C0.167784202,3.84983506 1.74952251,3.71114451 1.80747038,3.38285607 C1.86893024,3.03521855 2.12875139,2.47341577 2.43076615,2.2189123 C2.73269808,1.96434257 3.1084481,1.83613829 3.5578837,1.83613829 C4.02309013,1.83613829 4.39529503,1.95909115 4.66919728,2.20314147 C4.94308297,2.44891466 5.0816907,2.74205004 5.0816907,3.08436987 C5.0816907,3.33024245 5.0027537,3.55671625 4.84825918,3.76210152 C4.74813427,3.8919624 4.43919493,4.16584809 3.92477091,4.58544832 C3.41033033,5.00329255 3.06622137,5.38071574 2.89421658,5.71607786 C2.72214553,6.05140684 2.63616799,6.47803106 2.63616799,6.9976071 C2.63616799,7.04853099 2.63967998,7.18902724 2.64317541,7.41907929 L4.24774166,7.41907929 C4.23901138,6.93275121 4.28117185,6.5955834 4.37069452,6.40780778 C4.46026688,6.21819334 4.69195897,5.96892473 5.06418043,5.65993568 C5.7839069,5.06124042 6.25274128,4.58902658 6.47386426,4.24138905 C6.69331407,3.89375153 6.80389212,3.52505862 6.80222146,3.13527719 C6.80222146,2.43132156 6.50369962,1.81504977 5.90331463,1.28487149 L5.90336433,1.28483836 Z" id="形状"></path>
                    </g>
                </g>
            </g>
        </g>
    </g>
</svg>