<?xml version="1.0" encoding="UTF-8"?>
<svg width="21px" height="20px" viewBox="0 0 21 20" version="1.1" xmlns="http://www.w3.org/2000/svg" xmlns:xlink="http://www.w3.org/1999/xlink">
    <!-- Generator: Sketch 61.2 (89653) - https://sketch.com -->
    <title>形状</title>
    <desc>Created with Sketch.</desc>
    <g id="控件" stroke="none" stroke-width="1" fill="none" fill-rule="evenodd">
        <g id="head" transform="translate(-856.000000, -35.000000)" fill="#00bf6f" fill-rule="nonzero">
            <g id="形状">
                <path d="M863.691016,44.9974715 C863.691016,42.2657275 863.692129,39.5340065 863.689902,36.8022596 C863.689549,36.3541941 863.767919,35.9414103 863.995955,35.5858955 C864.245127,35.1974211 864.57066,35.0011091 864.971391,35.0010775 C865.989977,35.001048 867.008588,35.0041085 868.027142,35.000009 C868.752791,34.9971047 869.200506,35.6973971 869.286214,36.3950979 C869.301505,36.519636 869.307825,36.6470283 869.307849,36.773126 C869.30889,42.2592079 869.308511,47.745261 869.309056,53.2313716 C869.309056,53.8041226 869.163628,54.2962434 868.801075,54.6682681 C868.595313,54.8794118 868.357288,54.9925332 868.088824,54.9928263 C867.030211,54.9939151 865.971598,54.9985647 864.913035,54.9912372 C864.337716,54.9872645 863.84718,54.444793 863.726582,53.6912686 C863.699148,53.5198816 863.692521,53.3409899 863.692402,53.1655416 C863.69039,50.4428328 863.691006,47.7201527 863.691006,44.9974583 L863.691016,44.9974715 Z M862.119973,48.6965391 C862.119973,50.2025303 862.11931,51.7085101 862.120376,53.2145243 C862.120683,53.6521723 862.040797,54.0584527 861.8183,54.4058749 C861.570619,54.7925847 861.249938,54.9964606 860.845964,54.9951645 C859.823803,54.9918981 858.801522,54.9838937 857.779487,54.9979346 C857.141678,55.0065531 856.618053,54.3968708 856.520438,53.5875487 C856.507017,53.4761942 856.500934,53.3624268 856.500886,53.249748 C856.499868,50.2151602 856.499797,47.1805437 856.500318,44.1459559 C856.500413,43.5791192 856.648515,43.0910303 857.007067,42.7213908 C857.209515,42.5126602 857.442995,42.3957147 857.707555,42.3951859 C858.773338,42.3930083 859.839242,42.3837974 860.90491,42.3980993 C861.481082,42.4058388 861.95415,42.9378044 862.079244,43.6806182 C862.10805,43.8516813 862.117992,44.0304543 862.118323,44.2057273 C862.121258,45.7026259 862.11998,47.1995934 862.11998,48.6965552 L862.119973,48.6965391 Z M876.493611,51.1614624 C876.493777,51.9257291 876.50592,52.6903779 876.490321,53.4541733 C876.474912,54.2092582 876.021918,54.8470748 875.438335,54.9766142 C875.360319,54.9939471 875.27906,54.9933291 875.199316,54.9934174 C874.19531,54.9944474 873.191042,54.977497 872.187344,54.9997444 C871.478005,55.0154587 870.902637,54.3047219 870.890564,53.4193591 C870.869948,51.9092468 870.878232,50.3983068 870.887629,48.887867 C870.89241,48.1215685 871.347276,47.4606523 871.932678,47.3259918 C872.010647,47.3080703 872.091929,47.3075112 872.171698,47.3074229 C873.182994,47.3062458 874.194432,47.3199003 875.205513,47.3022142 C875.935517,47.2894426 876.465297,48.0386999 876.488611,48.8417829 C876.511003,49.6140244 876.49344,50.3881195 876.493606,51.1614501 L876.493611,51.1614624 Z"></path>
            </g>
        </g>
    </g>
</svg>