<?xml version="1.0" encoding="UTF-8"?>
<svg width="14px" height="15px" viewBox="0 0 14 15" version="1.1" xmlns="http://www.w3.org/2000/svg" xmlns:xlink="http://www.w3.org/1999/xlink">
    <!-- Generator: Sketch 61.2 (89653) - https://sketch.com -->
    <title>删 除</title>
    <desc>Created with Sketch.</desc>
    <g id="Page-1" stroke="none" stroke-width="1" fill="none" fill-rule="evenodd">
        <g id="2" transform="translate(-1340.000000, -481.000000)" fill="#9CB2CD" fill-rule="nonzero">
            <g id="删-除" transform="translate(1340.000000, 481.000000)">
                <path d="M7.1175,-1.42108547e-14 C8.6475,-1.42108547e-14 9.8925,1.215 9.9375,2.745 L9.9375,2.745 L13.29,2.745 C13.6875,2.745 14.01,3.0675 14.01,3.465 C14.01,3.8625 13.6875,4.185 13.29,4.185 L13.29,4.185 L12.57,4.185 L12.57,12.2475 C12.57,13.77 11.5425,15 10.275,15 L10.275,15 L3.81,15 C2.5425,15 1.515,13.7625 1.515,12.2475 L1.515,12.2475 L1.515,4.1775 L0.72,4.1775 C0.3225,4.1775 -9.32587341e-13,3.855 -9.32587341e-13,3.4575 C-9.32587341e-13,3.06 0.3225,2.7375 0.72,2.7375 L0.72,2.7375 L4.29,2.7375 C4.3425,1.215 5.5875,-1.42108547e-14 7.1175,-1.42108547e-14 Z M11.22,4.185 L2.865,4.185 L2.865,12.2475 C2.865,13.0725 3.36,13.65 3.81,13.65 L3.81,13.65 L3.81,13.6575 L10.275,13.6575 C10.725,13.6575 11.22,13.08 11.22,12.255 L11.22,12.255 L11.22,4.185 Z M4.7775,6.195 C5.1075,6.195 5.3775,6.525 5.3775,6.9375 L5.3775,6.9375 L5.3775,11.175 C5.3775,11.5875 5.1075,11.9175 4.7775,11.9175 C4.44,11.9175 4.1775,11.5875 4.1775,11.175 L4.1775,11.175 L4.1775,6.9375 C4.1775,6.525 4.4475,6.195 4.7775,6.195 Z M6.9525,6.195 C7.2825,6.195 7.5525,6.525 7.5525,6.9375 L7.5525,6.9375 L7.5525,11.175 C7.5525,11.5875 7.2825,11.9175 6.9525,11.9175 C6.6225,11.9175 6.3525,11.5875 6.3525,11.175 L6.3525,11.175 L6.3525,6.9375 C6.3525,6.525 6.6225,6.195 6.9525,6.195 Z M9.24,6.195 C9.57,6.195 9.84,6.525 9.84,6.9375 L9.84,6.9375 L9.84,11.175 C9.84,11.5875 9.57,11.9175 9.24,11.9175 C8.9025,11.9175 8.64,11.5875 8.64,11.175 L8.64,11.175 L8.64,6.9375 C8.64,6.525 8.91,6.195 9.24,6.195 Z M7.1175,1.35 C6.33,1.35 5.6925,1.9575 5.64,2.7375 L5.64,2.7375 L8.5875,2.7375 C8.5425,1.9575 7.905,1.35 7.1175,1.35 Z" id="形状结合"></path>
            </g>
        </g>
    </g>
</svg>