<?xml version="1.0" encoding="UTF-8"?>
<svg width="40px" height="40px" viewBox="0 0 40 40" version="1.1" xmlns="http://www.w3.org/2000/svg" xmlns:xlink="http://www.w3.org/1999/xlink">
    <!-- Generator: Sketch 61.2 (89653) - https://sketch.com -->
    <title>个人中心-头像</title>
    <desc>Created with Sketch.</desc>
    <g id="控件" stroke="none" stroke-width="1" fill="none" fill-rule="evenodd">
        <g id="head" transform="translate(-1740.000000, -25.000000)" fill="#A4B9A7" fill-rule="nonzero">
            <g id="个人中心-头像">
                <g transform="translate(1740.000000, 25.000000)">
                    <path d="M31.9439844,31.6239844 L31.9439844,31.6239844 C34.9774765,28.5158867 36.6725781,24.3430469 36.6659958,20 L36.6659958,19.9979999 C36.6659958,10.7947186 29.2052345,3.33401552 20.0019923,3.33401552 C20.0006589,3.33401552 19.9993255,3.33401552 19.9979921,3.33401552 L19.9979911,3.33401552 C10.7936161,3.33327137 3.33138958,10.7942894 3.33064734,19.9986644 C3.33029319,24.3769457 5.05285052,28.5795238 8.12599896,31.6980004 L15.635999,27.104016 L16.831999,24.388016 C15.473999,23.266016 14.581999,21.564016 14.581999,19.7500082 L14.581999,15.278016 L14.5819988,15.2780238 C14.6387457,12.3625121 17.0482371,10.045016 19.9637566,10.1017738 C22.7993465,10.1569652 25.0848113,12.4424378 25.1400066,15.2780238 L25.1400066,19.750016 C25.1400066,21.560016 24.2380066,23.290016 22.8620066,24.4280238 L24.0240066,27.1060238 L31.9420144,31.6240316 L31.9439844,31.6239844 Z M20,40 C8.95601562,40 0,31.0439844 0,20 C0,8.95398437 8.95601562,0 20,0 C31.0439844,0 40,8.95398438 40,20 C40,31.0439844 31.0439844,40 20,40 Z" id="形状"></path>
                </g>
            </g>
        </g>
    </g>
</svg>