<?xml version="1.0" encoding="UTF-8"?>
<svg width="40px" height="40px" viewBox="0 0 40 40" version="1.1" xmlns="http://www.w3.org/2000/svg" xmlns:xlink="http://www.w3.org/1999/xlink">
    <!-- Generator: Sketch 61.2 (89653) - https://sketch.com -->
    <title>形状</title>
    <desc>Created with Sketch.</desc>
    <g id="编辑问题" stroke="none" stroke-width="1" fill="none" fill-rule="evenodd">
        <g id="1" transform="translate(-1358.000000, -15.000000)" fill="#00BF6F">
            <g id="head">
                <path d="M1389.94398,46.6239844 L1389.94398,46.6239844 C1392.97748,43.5158867 1394.67258,39.3430469 1394.666,35 L1394.666,34.9979999 C1394.666,25.7947186 1387.20523,18.3340155 1378.00199,18.3340155 C1378.00066,18.3340155 1377.99933,18.3340155 1377.99799,18.3340155 L1377.99799,18.3340155 C1368.79362,18.3332714 1361.33139,25.7942894 1361.33065,34.9986644 C1361.33029,39.3769457 1363.05285,43.5795238 1366.126,46.6980004 L1373.636,42.104016 L1374.832,39.388016 C1373.474,38.266016 1372.582,36.564016 1372.582,34.7500082 L1372.582,30.278016 L1372.582,30.2780238 C1372.63875,27.3625121 1375.04824,25.045016 1377.96376,25.1017738 C1380.79935,25.1569652 1383.08481,27.4424378 1383.14001,30.2780238 L1383.14001,34.750016 C1383.14001,36.560016 1382.23801,38.290016 1380.86201,39.4280238 L1382.02401,42.1060238 L1389.94201,46.6240316 L1389.94398,46.6239844 Z M1378,55 C1366.95602,55 1358,46.0439844 1358,35 C1358,23.9539844 1366.95602,15 1378,15 C1389.04398,15 1398,23.9539844 1398,35 C1398,46.0439844 1389.04398,55 1378,55 Z" id="形状"></path>
            </g>
        </g>
    </g>
</svg>